<?xml version="1.0" standalone="no"?>
<!DOCTYPE svg PUBLIC "-//W3C//DTD SVG 20010904//EN"
 "http://www.w3.org/TR/2001/REC-SVG-20010904/DTD/svg10.dtd">
<svg version="1.0" xmlns="http://www.w3.org/2000/svg"
 width="700.000000pt" height="700.000000pt" viewBox="0 0 700.000000 700.000000"
 preserveAspectRatio="xMidYMid meet">
<metadata>
Created by potrace 1.11, written by Peter Selinger 2001-2013
</metadata>
<g transform="translate(0.000000,700.000000) scale(0.100000,-0.100000)"
fill="#000000" stroke="none">
<path d="M3190 6550 c-910 -94 -1733 -589 -2235 -1345 -268 -403 -414 -784
-492 -1285 -22 -147 -26 -652 -5 -800 101 -714 403 -1318 903 -1806 491 -477
1096 -767 1780 -850 180 -22 528 -22 708 0 369 45 663 132 996 296 274 135
495 284 714 483 286 261 507 557 681 912 164 333 251 627 296 996 22 180 22
528 0 708 -83 684 -373 1289 -850 1780 -480 492 -1069 790 -1769 897 -120 18
-595 27 -727 14z m597 -160 c571 -97 1039 -446 1294 -965 312 -638 211 -1393
-261 -1932 -247 -283 -588 -480 -980 -565 -92 -20 -133 -22 -340 -22 -207 0
-247 2 -340 22 -377 82 -711 272 -959 545 -64 71 -171 209 -171 221 0 4 17 -5
38 -22 110 -86 297 -168 462 -203 136 -28 346 -31 465 -5 263 57 470 171 648
355 222 231 337 516 337 836 0 319 -114 602 -335 834 -236 248 -532 374 -875
374 -257 -1 -501 -77 -687 -215 -29 -21 -53 -36 -53 -32 0 4 24 39 53 78 279
377 693 629 1156 701 138 21 407 19 548 -5z m-1363 -184 c-302 -207 -554 -531
-690 -888 -19 -51 -50 -129 -69 -173 -137 -325 -137 -655 0 -980 19 -44 49
-120 68 -170 254 -666 841 -1127 1547 -1215 118 -14 345 -12 472 5 628 83
1168 475 1449 1050 288 591 243 1297 -117 1848 -133 204 -305 381 -508 525
-33 23 -56 42 -53 42 3 0 54 -21 114 -46 912 -390 1563 -1200 1742 -2170 36
-193 45 -305 44 -534 0 -316 -35 -560 -120 -840 -143 -474 -380 -868 -737
-1226 -358 -357 -752 -594 -1226 -737 -280 -85 -524 -120 -840 -120 -367 -1
-668 50 -999 169 -828 298 -1490 971 -1775 1803 -112 325 -157 607 -157 966 1
586 163 1122 487 1610 307 464 773 855 1269 1065 66 28 129 55 140 60 47 21
34 6 -41 -44z m471 -477 c443 -54 802 -364 923 -796 25 -90 27 -112 27 -278
-1 -154 -4 -192 -23 -262 -51 -188 -147 -358 -278 -490 -42 -43 -73 -71 -71
-63 3 8 18 44 33 80 42 101 67 241 60 331 -24 303 -203 557 -469 668 -426 177
-912 -57 -1037 -499 -62 -220 -25 -440 109 -650 14 -22 11 -21 -33 10 -80 58
-201 185 -261 274 -45 68 -60 102 -80 180 -36 142 -49 254 -49 421 0 167 13
279 49 421 30 118 97 225 216 343 235 236 560 350 884 310z m40 -894 c77 -16
193 -70 240 -110 22 -19 24 -25 10 -20 -11 4 -54 9 -95 12 -262 18 -494 -171
-532 -435 -35 -241 116 -480 351 -553 72 -22 209 -27 271 -10 l35 10 -30 -25
c-43 -36 -181 -100 -243 -113 -78 -16 -234 -14 -306 5 -150 39 -306 155 -384
287 -151 252 -111 571 97 777 158 158 369 220 586 175z m203 -276 c147 -71
145 -283 -3 -350 -67 -31 -76 -23 -31 24 43 44 66 100 66 158 0 47 -41 129
-79 162 -41 34 -17 37 47 6z m290 -322 c5 -107 -8 -160 -60 -237 -69 -104
-179 -162 -308 -162 -177 0 -322 111 -366 282 -19 76 -14 164 13 231 l17 44 8
-52 c16 -109 73 -191 170 -244 58 -31 70 -34 148 -34 107 0 170 26 235 96 54
58 81 113 91 188 l7 54 20 -39 c15 -28 22 -65 25 -127z m-444 101 c8 -14 7
-21 -6 -34 -21 -21 -68 -11 -68 14 0 41 52 55 74 20z"/>
</g>
</svg>
